{
    "asset" : {
        "generator" : "Khronos glTF Blender I/O v0.9.36",
        "version" : "2.0"
    },
    "scene" : 0,
    "scenes" : [
        {
            "name" : "Scene",
            "nodes" : [
                0,
                1,
                2
            ]
        }
    ],
    "nodes" : [
        {
            "name" : "Light",
            "rotation" : [
                0.16907575726509094,
                0.7558803558349609,
                -0.27217137813568115,
                0.570947527885437
            ],
            "translation" : [
                4.076245307922363,
                5.903861999511719,
                -1.0054539442062378
            ]
        },
        {
            "name" : "Camera",
            "rotation" : [
                0.483536034822464,
                0.33687159419059753,
                -0.20870360732078552,
                0.7804827094078064
            ],
            "translation" : [
                7.358891487121582,
                4.958309173583984,
                6.925790786743164
            ]
        },
        {
            "mesh" : 0,
            "name" : "HarleyRenderTrial2_IsolatedModel",
            "rotation" : [
                0.7071068286895752,
                0,
                0,
                0.7071067094802856
            ]
        }
    ],
    "materials" : [
        {
            "doubleSided" : true,
            "name" : "Material_0",
            "pbrMetallicRoughness" : {
                "baseColorTexture" : {
                    "index" : 0,
                    "texCoord" : 0
                },
                "metallicFactor" : 0,
                "roughnessFactor" : 1
            }
        },
        {
            "doubleSided" : true,
            "name" : "Material_1",
            "pbrMetallicRoughness" : {
                "baseColorTexture" : {
                    "index" : 1,
                    "texCoord" : 0
                },
                "metallicFactor" : 0,
                "roughnessFactor" : 1
            }
        },
        {
            "doubleSided" : true,
            "name" : "Material_2",
            "pbrMetallicRoughness" : {
                "baseColorTexture" : {
                    "index" : 2,
                    "texCoord" : 0
                },
                "metallicFactor" : 0,
                "roughnessFactor" : 1
            }
        }
    ],
    "meshes" : [
        {
            "name" : "HarleyRenderTrial2_IsolatedModel",
            "primitives" : [
                {
                    "attributes" : {
                        "POSITION" : 0,
                        "NORMAL" : 1,
                        "TEXCOORD_0" : 2
                    },
                    "indices" : 3,
                    "material" : 0
                },
                {
                    "attributes" : {
                        "POSITION" : 4,
                        "NORMAL" : 5,
                        "TEXCOORD_0" : 6
                    },
                    "indices" : 7,
                    "material" : 0
                },
                {
                    "attributes" : {
                        "POSITION" : 8,
                        "NORMAL" : 9,
                        "TEXCOORD_0" : 10
                    },
                    "indices" : 11,
                    "material" : 0
                },
                {
                    "attributes" : {
                        "POSITION" : 12,
                        "NORMAL" : 13,
                        "TEXCOORD_0" : 14
                    },
                    "indices" : 15,
                    "material" : 1
                },
                {
                    "attributes" : {
                        "POSITION" : 16,
                        "NORMAL" : 17,
                        "TEXCOORD_0" : 18
                    },
                    "indices" : 19,
                    "material" : 1
                },
                {
                    "attributes" : {
                        "POSITION" : 20,
                        "NORMAL" : 21,
                        "TEXCOORD_0" : 22
                    },
                    "indices" : 23,
                    "material" : 1
                },
                {
                    "attributes" : {
                        "POSITION" : 24,
                        "NORMAL" : 25,
                        "TEXCOORD_0" : 26
                    },
                    "indices" : 27,
                    "material" : 2
                },
                {
                    "attributes" : {
                        "POSITION" : 28,
                        "NORMAL" : 29,
                        "TEXCOORD_0" : 30
                    },
                    "indices" : 31,
                    "material" : 2
                },
                {
                    "attributes" : {
                        "POSITION" : 32,
                        "NORMAL" : 33,
                        "TEXCOORD_0" : 34
                    },
                    "indices" : 35,
                    "material" : 2
                },
                {
                    "attributes" : {
                        "POSITION" : 36,
                        "NORMAL" : 37,
                        "TEXCOORD_0" : 38
                    },
                    "indices" : 39,
                    "material" : 2
                }
            ]
        }
    ],
    "textures" : [
        {
            "source" : 0
        },
        {
            "source" : 1
        },
        {
            "source" : 2
        }
    ],
    "images" : [
        {
            "mimeType" : "image/jpeg",
            "name" : "HarleyRenderTrial2_IsolatedModel01",
            "uri" : "HarleyRenderTrial2_IsolatedModel01.jpg"
        },
        {
            "mimeType" : "image/jpeg",
            "name" : "HarleyRenderTrial2_IsolatedModel02",
            "uri" : "HarleyRenderTrial2_IsolatedModel02.jpg"
        },
        {
            "mimeType" : "image/jpeg",
            "name" : "HarleyRenderTrial2_IsolatedModel03",
            "uri" : "HarleyRenderTrial2_IsolatedModel03.jpg"
        }
    ],
    "accessors" : [
        {
            "bufferView" : 0,
            "componentType" : 5126,
            "count" : 65535,
            "max" : [
                10.976579666137695,
                -0.9980440139770508,
                3.6889801025390625
            ],
            "min" : [
                -8.42898941040039,
                -4.086842060089111,
                -5.270533084869385
            ],
            "type" : "VEC3"
        },
        {
            "bufferView" : 1,
            "componentType" : 5126,
            "count" : 65535,
            "type" : "VEC3"
        },
        {
            "bufferView" : 2,
            "componentType" : 5126,
            "count" : 65535,
            "type" : "VEC2"
        },
        {
            "bufferView" : 3,
            "componentType" : 5123,
            "count" : 336756,
            "type" : "SCALAR"
        },
        {
            "bufferView" : 4,
            "componentType" : 5126,
            "count" : 19995,
            "max" : [
                4.753489971160889,
                -1.0350379943847656,
                -2.3217239379882812
            ],
            "min" : [
                -5.857505798339844,
                -3.9123430252075195,
                -5.276792049407959
            ],
            "type" : "VEC3"
        },
        {
            "bufferView" : 5,
            "componentType" : 5126,
            "count" : 19995,
            "type" : "VEC3"
        },
        {
            "bufferView" : 6,
            "componentType" : 5126,
            "count" : 19995,
            "type" : "VEC2"
        },
        {
            "bufferView" : 7,
            "componentType" : 5123,
            "count" : 104853,
            "type" : "SCALAR"
        },
        {
            "bufferView" : 8,
            "componentType" : 5126,
            "count" : 391,
            "max" : [
                3.5709569454193115,
                -2.3099820613861084,
                -3.9360570907592773
            ],
            "min" : [
                2.9732730388641357,
                -2.994852066040039,
                -4.768984794616699
            ],
            "type" : "VEC3"
        },
        {
            "bufferView" : 9,
            "componentType" : 5126,
            "count" : 391,
            "type" : "VEC3"
        },
        {
            "bufferView" : 10,
            "componentType" : 5126,
            "count" : 391,
            "type" : "VEC2"
        },
        {
            "bufferView" : 11,
            "componentType" : 5123,
            "count" : 1230,
            "type" : "SCALAR"
        },
        {
            "bufferView" : 12,
            "componentType" : 5126,
            "count" : 65534,
            "max" : [
                11.537075996398926,
                3.0705740451812744,
                3.6889801025390625
            ],
            "min" : [
                4.641880035400391,
                -1.1749409437179565,
                -7.859710216522217
            ],
            "type" : "VEC3"
        },
        {
            "bufferView" : 13,
            "componentType" : 5126,
            "count" : 65534,
            "type" : "VEC3"
        },
        {
            "bufferView" : 14,
            "componentType" : 5126,
            "count" : 65534,
            "type" : "VEC2"
        },
        {
            "bufferView" : 15,
            "componentType" : 5123,
            "count" : 332139,
            "type" : "SCALAR"
        },
        {
            "bufferView" : 16,
            "componentType" : 5126,
            "count" : 21556,
            "max" : [
                7.703146934509277,
                2.247549057006836,
                -2.3043880462646484
            ],
            "min" : [
                4.671839237213135,
                -1.1747260093688965,
                -8.186790466308594
            ],
            "type" : "VEC3"
        },
        {
            "bufferView" : 17,
            "componentType" : 5126,
            "count" : 21556,
            "type" : "VEC3"
        },
        {
            "bufferView" : 18,
            "componentType" : 5126,
            "count" : 21556,
            "type" : "VEC2"
        },
        {
            "bufferView" : 19,
            "componentType" : 5123,
            "count" : 111030,
            "type" : "SCALAR"
        },
        {
            "bufferView" : 20,
            "componentType" : 5126,
            "count" : 296,
            "max" : [
                6.196101188659668,
                1.4835710525512695,
                -6.272012233734131
            ],
            "min" : [
                5.521059036254883,
                -0.3844499886035919,
                -7.798838138580322
            ],
            "type" : "VEC3"
        },
        {
            "bufferView" : 21,
            "componentType" : 5126,
            "count" : 296,
            "type" : "VEC3"
        },
        {
            "bufferView" : 22,
            "componentType" : 5126,
            "count" : 296,
            "type" : "VEC2"
        },
        {
            "bufferView" : 23,
            "componentType" : 5123,
            "count" : 873,
            "type" : "SCALAR"
        },
        {
            "bufferView" : 24,
            "componentType" : 5126,
            "count" : 65535,
            "max" : [
                4.7529520988464355,
                2.582144021987915,
                3.6889801025390625
            ],
            "min" : [
                -8.51846694946289,
                -1.2237919569015503,
                -2.9357850551605225
            ],
            "type" : "VEC3"
        },
        {
            "bufferView" : 25,
            "componentType" : 5126,
            "count" : 65535,
            "type" : "VEC3"
        },
        {
            "bufferView" : 26,
            "componentType" : 5126,
            "count" : 65535,
            "type" : "VEC2"
        },
        {
            "bufferView" : 27,
            "componentType" : 5123,
            "count" : 341580,
            "type" : "SCALAR"
        },
        {
            "bufferView" : 28,
            "componentType" : 5126,
            "count" : 65531,
            "max" : [
                4.76982307434082,
                3.562851905822754,
                3.1475610733032227
            ],
            "min" : [
                -1.0181740522384644,
                -1.2125979661941528,
                -5.383502006530762
            ],
            "type" : "VEC3"
        },
        {
            "bufferView" : 29,
            "componentType" : 5126,
            "count" : 65531,
            "type" : "VEC3"
        },
        {
            "bufferView" : 30,
            "componentType" : 5126,
            "count" : 65531,
            "type" : "VEC2"
        },
        {
            "bufferView" : 31,
            "componentType" : 5123,
            "count" : 343272,
            "type" : "SCALAR"
        },
        {
            "bufferView" : 32,
            "componentType" : 5126,
            "count" : 15416,
            "max" : [
                4.726302146911621,
                2.3154940605163574,
                -2.2919070720672607
            ],
            "min" : [
                -6.2185378074646,
                -1.1818759441375732,
                -5.206267833709717
            ],
            "type" : "VEC3"
        },
        {
            "bufferView" : 33,
            "componentType" : 5126,
            "count" : 15416,
            "type" : "VEC3"
        },
        {
            "bufferView" : 34,
            "componentType" : 5126,
            "count" : 15416,
            "type" : "VEC2"
        },
        {
            "bufferView" : 35,
            "componentType" : 5123,
            "count" : 81165,
            "type" : "SCALAR"
        },
        {
            "bufferView" : 36,
            "componentType" : 5126,
            "count" : 498,
            "max" : [
                4.7503180503845215,
                2.323793888092041,
                -1.9273769855499268
            ],
            "min" : [
                -0.11612299829721451,
                -1.1420220136642456,
                -4.9426188468933105
            ],
            "type" : "VEC3"
        },
        {
            "bufferView" : 37,
            "componentType" : 5126,
            "count" : 498,
            "type" : "VEC3"
        },
        {
            "bufferView" : 38,
            "componentType" : 5126,
            "count" : 498,
            "type" : "VEC2"
        },
        {
            "bufferView" : 39,
            "componentType" : 5123,
            "count" : 1200,
            "type" : "SCALAR"
        }
    ],
    "bufferViews" : [
        {
            "buffer" : 0,
            "byteLength" : 786420,
            "byteOffset" : 0
        },
        {
            "buffer" : 0,
            "byteLength" : 786420,
            "byteOffset" : 786420
        },
        {
            "buffer" : 0,
            "byteLength" : 524280,
            "byteOffset" : 1572840
        },
        {
            "buffer" : 0,
            "byteLength" : 673512,
            "byteOffset" : 2097120
        },
        {
            "buffer" : 0,
            "byteLength" : 239940,
            "byteOffset" : 2770632
        },
        {
            "buffer" : 0,
            "byteLength" : 239940,
            "byteOffset" : 3010572
        },
        {
            "buffer" : 0,
            "byteLength" : 159960,
            "byteOffset" : 3250512
        },
        {
            "buffer" : 0,
            "byteLength" : 209706,
            "byteOffset" : 3410472
        },
        {
            "buffer" : 0,
            "byteLength" : 4692,
            "byteOffset" : 3620180
        },
        {
            "buffer" : 0,
            "byteLength" : 4692,
            "byteOffset" : 3624872
        },
        {
            "buffer" : 0,
            "byteLength" : 3128,
            "byteOffset" : 3629564
        },
        {
            "buffer" : 0,
            "byteLength" : 2460,
            "byteOffset" : 3632692
        },
        {
            "buffer" : 0,
            "byteLength" : 786408,
            "byteOffset" : 3635152
        },
        {
            "buffer" : 0,
            "byteLength" : 786408,
            "byteOffset" : 4421560
        },
        {
            "buffer" : 0,
            "byteLength" : 524272,
            "byteOffset" : 5207968
        },
        {
            "buffer" : 0,
            "byteLength" : 664278,
            "byteOffset" : 5732240
        },
        {
            "buffer" : 0,
            "byteLength" : 258672,
            "byteOffset" : 6396520
        },
        {
            "buffer" : 0,
            "byteLength" : 258672,
            "byteOffset" : 6655192
        },
        {
            "buffer" : 0,
            "byteLength" : 172448,
            "byteOffset" : 6913864
        },
        {
            "buffer" : 0,
            "byteLength" : 222060,
            "byteOffset" : 7086312
        },
        {
            "buffer" : 0,
            "byteLength" : 3552,
            "byteOffset" : 7308372
        },
        {
            "buffer" : 0,
            "byteLength" : 3552,
            "byteOffset" : 7311924
        },
        {
            "buffer" : 0,
            "byteLength" : 2368,
            "byteOffset" : 7315476
        },
        {
            "buffer" : 0,
            "byteLength" : 1746,
            "byteOffset" : 7317844
        },
        {
            "buffer" : 0,
            "byteLength" : 786420,
            "byteOffset" : 7319592
        },
        {
            "buffer" : 0,
            "byteLength" : 786420,
            "byteOffset" : 8106012
        },
        {
            "buffer" : 0,
            "byteLength" : 524280,
            "byteOffset" : 8892432
        },
        {
            "buffer" : 0,
            "byteLength" : 683160,
            "byteOffset" : 9416712
        },
        {
            "buffer" : 0,
            "byteLength" : 786372,
            "byteOffset" : 10099872
        },
        {
            "buffer" : 0,
            "byteLength" : 786372,
            "byteOffset" : 10886244
        },
        {
            "buffer" : 0,
            "byteLength" : 524248,
            "byteOffset" : 11672616
        },
        {
            "buffer" : 0,
            "byteLength" : 686544,
            "byteOffset" : 12196864
        },
        {
            "buffer" : 0,
            "byteLength" : 184992,
            "byteOffset" : 12883408
        },
        {
            "buffer" : 0,
            "byteLength" : 184992,
            "byteOffset" : 13068400
        },
        {
            "buffer" : 0,
            "byteLength" : 123328,
            "byteOffset" : 13253392
        },
        {
            "buffer" : 0,
            "byteLength" : 162330,
            "byteOffset" : 13376720
        },
        {
            "buffer" : 0,
            "byteLength" : 5976,
            "byteOffset" : 13539052
        },
        {
            "buffer" : 0,
            "byteLength" : 5976,
            "byteOffset" : 13545028
        },
        {
            "buffer" : 0,
            "byteLength" : 3984,
            "byteOffset" : 13551004
        },
        {
            "buffer" : 0,
            "byteLength" : 2400,
            "byteOffset" : 13554988
        }
    ],
    "buffers" : [
        {
            "byteLength" : 13557388,
            "uri" : "HarleyMotorcycle.bin"
        }
    ]
}
